<svg id="visual" viewBox="0 0 900 600" width="900" height="600" xmlns="http://www.w3.org/2000/svg" xmlns:xlink="http://www.w3.org/1999/xlink" version="1.1"><g stroke-width="1" stroke-linejoin="bevel"><path d="M448 261L598.5 215L484 179Z" fill="#081a28" stroke="#081a28"></path><path d="M448 261L608.5 259L598.5 215Z" fill="#19435d" stroke="#19435d"></path><path d="M604.5 415L634 270L608.5 259Z" fill="#15384f" stroke="#15384f"></path><path d="M608.5 259L634 270L598.5 215Z" fill="#15384f" stroke="#15384f"></path><path d="M693 62L553.5 117L598.5 215Z" fill="#15384f" stroke="#15384f"></path><path d="M598.5 215L553.5 117L484 179Z" fill="#246688" stroke="#246688"></path><path d="M634 270L692 246L598.5 215Z" fill="#19435d" stroke="#19435d"></path><path d="M305.5 220L369.5 320L448 261Z" fill="#246688" stroke="#246688"></path><path d="M448 261L461 418L608.5 259Z" fill="#081a28" stroke="#081a28"></path><path d="M369.5 320L461 418L448 261Z" fill="#297ea6" stroke="#297ea6"></path><path d="M634 270L746.5 384L692 246Z" fill="#1d4e6b" stroke="#1d4e6b"></path><path d="M461 418L604.5 415L608.5 259Z" fill="#1d4e6b" stroke="#1d4e6b"></path><path d="M369.5 320L346.5 353L461 418Z" fill="#1d4e6b" stroke="#1d4e6b"></path><path d="M553.5 117L411 57L484 179Z" fill="#205a7a" stroke="#205a7a"></path><path d="M484 179L305.5 220L448 261Z" fill="#205a7a" stroke="#205a7a"></path><path d="M369.5 320L305.5 220L346.5 353Z" fill="#277297" stroke="#277297"></path><path d="M291.5 119L305.5 220L484 179Z" fill="#297ea6" stroke="#297ea6"></path><path d="M692 246L693 62L598.5 215Z" fill="#15384f" stroke="#15384f"></path><path d="M553.5 117L488 0L411 57Z" fill="#15384f" stroke="#15384f"></path><path d="M584.5 0L488 0L553.5 117Z" fill="#246688" stroke="#246688"></path><path d="M693 62L584.5 0L553.5 117Z" fill="#112e42" stroke="#112e42"></path><path d="M710 524L698 435L604.5 415Z" fill="#246688" stroke="#246688"></path><path d="M604.5 415L746.5 384L634 270Z" fill="#112e42" stroke="#112e42"></path><path d="M692 246L808.5 118L693 62Z" fill="#00101c" stroke="#00101c"></path><path d="M698 435L746.5 384L604.5 415Z" fill="#246688" stroke="#246688"></path><path d="M746.5 384L782.5 298L692 246Z" fill="#19435d" stroke="#19435d"></path><path d="M411 57L291.5 119L484 179Z" fill="#00101c" stroke="#00101c"></path><path d="M367.5 0L291.5 119L411 57Z" fill="#1d4e6b" stroke="#1d4e6b"></path><path d="M461 418L555.5 527L604.5 415Z" fill="#15384f" stroke="#15384f"></path><path d="M459 527L555.5 527L461 418Z" fill="#246688" stroke="#246688"></path><path d="M782.5 298L808.5 219L692 246Z" fill="#081a28" stroke="#081a28"></path><path d="M774.5 0L674 0L693 62Z" fill="#19435d" stroke="#19435d"></path><path d="M693 62L674 0L584.5 0Z" fill="#297ea6" stroke="#297ea6"></path><path d="M321.5 533L459 527L461 418Z" fill="#112e42" stroke="#112e42"></path><path d="M488 0L367.5 0L411 57Z" fill="#112e42" stroke="#112e42"></path><path d="M204 56L234 193L291.5 119Z" fill="#00101c" stroke="#00101c"></path><path d="M291.5 119L234 193L305.5 220Z" fill="#0c2435" stroke="#0c2435"></path><path d="M305.5 220L222 341L346.5 353Z" fill="#112e42" stroke="#112e42"></path><path d="M346.5 353L321.5 533L461 418Z" fill="#297ea6" stroke="#297ea6"></path><path d="M808.5 219L808.5 118L692 246Z" fill="#0c2435" stroke="#0c2435"></path><path d="M234 193L222 341L305.5 220Z" fill="#19435d" stroke="#19435d"></path><path d="M555.5 527L710 524L604.5 415Z" fill="#19435d" stroke="#19435d"></path><path d="M698 435L766.5 508L746.5 384Z" fill="#081a28" stroke="#081a28"></path><path d="M900 410L900 288L782.5 298Z" fill="#0c2435" stroke="#0c2435"></path><path d="M782.5 298L900 288L808.5 219Z" fill="#081a28" stroke="#081a28"></path><path d="M222 341L228 427L346.5 353Z" fill="#15384f" stroke="#15384f"></path><path d="M808.5 118L774.5 0L693 62Z" fill="#277297" stroke="#277297"></path><path d="M228 427L321.5 533L346.5 353Z" fill="#00101c" stroke="#00101c"></path><path d="M488 600L559.5 600L555.5 527Z" fill="#0c2435" stroke="#0c2435"></path><path d="M555.5 527L559.5 600L710 524Z" fill="#297ea6" stroke="#297ea6"></path><path d="M488 600L555.5 527L459 527Z" fill="#1d4e6b" stroke="#1d4e6b"></path><path d="M711 600L766.5 508L710 524Z" fill="#1d4e6b" stroke="#1d4e6b"></path><path d="M710 524L766.5 508L698 435Z" fill="#297ea6" stroke="#297ea6"></path><path d="M321.5 533L488 600L459 527Z" fill="#297ea6" stroke="#297ea6"></path><path d="M367.5 0L204 56L291.5 119Z" fill="#112e42" stroke="#112e42"></path><path d="M234 193L146.5 243L222 341Z" fill="#112e42" stroke="#112e42"></path><path d="M900 410L782.5 298L746.5 384Z" fill="#081a28" stroke="#081a28"></path><path d="M808.5 219L900 157L808.5 118Z" fill="#1d4e6b" stroke="#1d4e6b"></path><path d="M808.5 118L900 0L774.5 0Z" fill="#112e42" stroke="#112e42"></path><path d="M96.5 98L146.5 243L234 193Z" fill="#112e42" stroke="#112e42"></path><path d="M222 341L149.5 344L228 427Z" fill="#112e42" stroke="#112e42"></path><path d="M900 288L900 157L808.5 219Z" fill="#0c2435" stroke="#0c2435"></path><path d="M146.5 243L149.5 344L222 341Z" fill="#15384f" stroke="#15384f"></path><path d="M212 600L293.5 600L321.5 533Z" fill="#246688" stroke="#246688"></path><path d="M559.5 600L711 600L710 524Z" fill="#15384f" stroke="#15384f"></path><path d="M766.5 508L900 410L746.5 384Z" fill="#19435d" stroke="#19435d"></path><path d="M900 157L900 101L808.5 118Z" fill="#205a7a" stroke="#205a7a"></path><path d="M900 507L900 410L766.5 508Z" fill="#277297" stroke="#277297"></path><path d="M204 56L96.5 98L234 193Z" fill="#081a28" stroke="#081a28"></path><path d="M367.5 0L186 0L204 56Z" fill="#112e42" stroke="#112e42"></path><path d="M183 503L321.5 533L228 427Z" fill="#0c2435" stroke="#0c2435"></path><path d="M321.5 533L293.5 600L488 600Z" fill="#19435d" stroke="#19435d"></path><path d="M149.5 344L183 503L228 427Z" fill="#0c2435" stroke="#0c2435"></path><path d="M711 600L796.5 600L766.5 508Z" fill="#081a28" stroke="#081a28"></path><path d="M900 101L900 0L808.5 118Z" fill="#205a7a" stroke="#205a7a"></path><path d="M107.5 0L96.5 98L204 56Z" fill="#15384f" stroke="#15384f"></path><path d="M146.5 243L70.5 367L149.5 344Z" fill="#15384f" stroke="#15384f"></path><path d="M149.5 344L102.5 507L183 503Z" fill="#0c2435" stroke="#0c2435"></path><path d="M796.5 600L900 507L766.5 508Z" fill="#297ea6" stroke="#297ea6"></path><path d="M0 294L70.5 367L146.5 243Z" fill="#297ea6" stroke="#297ea6"></path><path d="M183 503L212 600L321.5 533Z" fill="#297ea6" stroke="#297ea6"></path><path d="M103.5 600L212 600L183 503Z" fill="#277297" stroke="#277297"></path><path d="M186 0L107.5 0L204 56Z" fill="#00101c" stroke="#00101c"></path><path d="M70.5 367L102.5 507L149.5 344Z" fill="#1d4e6b" stroke="#1d4e6b"></path><path d="M796.5 600L900 600L900 507Z" fill="#277297" stroke="#277297"></path><path d="M0 89L0 241L96.5 98Z" fill="#0c2435" stroke="#0c2435"></path><path d="M96.5 98L0 241L146.5 243Z" fill="#246688" stroke="#246688"></path><path d="M70.5 367L0 436L102.5 507Z" fill="#277297" stroke="#277297"></path><path d="M0 241L0 294L146.5 243Z" fill="#0c2435" stroke="#0c2435"></path><path d="M0 0L0 89L96.5 98Z" fill="#1d4e6b" stroke="#1d4e6b"></path><path d="M0 522L103.5 600L102.5 507Z" fill="#277297" stroke="#277297"></path><path d="M102.5 507L103.5 600L183 503Z" fill="#112e42" stroke="#112e42"></path><path d="M0 294L0 436L70.5 367Z" fill="#0c2435" stroke="#0c2435"></path><path d="M107.5 0L0 0L96.5 98Z" fill="#1d4e6b" stroke="#1d4e6b"></path><path d="M0 436L0 522L102.5 507Z" fill="#19435d" stroke="#19435d"></path><path d="M0 522L0 600L103.5 600Z" fill="#277297" stroke="#277297"></path></g></svg>