<svg id="visual" viewBox="0 0 900 600" width="900" height="600" xmlns="http://www.w3.org/2000/svg" xmlns:xlink="http://www.w3.org/1999/xlink" version="1.1"><rect x="0" y="0" width="900" height="600" fill="#001220"></rect><defs><linearGradient id="grad1_0" x1="33.3%" y1="0%" x2="100%" y2="100%"><stop offset="20%" stop-color="#001220" stop-opacity="1"></stop><stop offset="80%" stop-color="#001220" stop-opacity="1"></stop></linearGradient></defs><defs><linearGradient id="grad2_0" x1="0%" y1="0%" x2="66.7%" y2="100%"><stop offset="20%" stop-color="#001220" stop-opacity="1"></stop><stop offset="80%" stop-color="#001220" stop-opacity="1"></stop></linearGradient></defs><g transform="translate(900, 0)"><path d="M0 486.7C-44.1 433.3 -88.3 379.8 -150.8 364C-213.3 348.2 -294.1 370.1 -344.2 344.2C-394.3 318.2 -413.7 244.4 -432.4 179.1C-451 113.8 -468.9 56.9 -486.7 0L0 0Z" fill="#FBAE3C"></path></g><g transform="translate(0, 600)"><path d="M0 -486.7C54.5 -463 109 -439.2 174.5 -421.3C240 -403.4 316.4 -391.2 344.2 -344.2C372 -297.1 351.1 -215.1 366.8 -151.9C382.4 -88.7 434.6 -44.4 486.7 0L0 0Z" fill="#FBAE3C"></path></g></svg>